<?xml version="1.0" encoding="UTF-8"?>
<svg width="24px" height="17px" viewBox="0 0 24 17" version="1.1" xmlns="http://www.w3.org/2000/svg" xmlns:xlink="http://www.w3.org/1999/xlink">
    <g stroke="none" stroke-width="1" fill-rule="evenodd" transform="translate(-103.000000, -1759.000000)" fill="#0099DF">
        <path d="M114.167969,1759.52734 L113.933594,1762.04688 C109.851542,1762.94532 107.810547,1764.62499 107.810547,1767.08594 C107.810547,1767.78907 108.464837,1768.55078 109.773438,1769.37109 C111.062506,1770.19141 111.707031,1771.20703 111.707031,1772.41797 C111.707031,1773.49219 111.365238,1774.35156 110.681641,1774.99609 C109.998043,1775.64063 109.099615,1775.96289 107.986328,1775.96289 C106.677728,1775.96289 105.56934,1775.50879 104.661133,1774.60059 C103.752925,1773.69238 103.298828,1772.50587 103.298828,1771.04102 C103.298828,1768.15038 104.226553,1765.68946 106.082031,1763.6582 C107.937509,1761.62694 110.632795,1760.25 114.167969,1759.52734 Z M126.150391,1759.52734 L125.916016,1762.04688 C121.833964,1762.96485 119.792969,1764.64452 119.792969,1767.08594 C119.792969,1767.78907 120.447259,1768.55078 121.755859,1769.37109 C123.044928,1770.19141 123.689453,1771.20703 123.689453,1772.41797 C123.689453,1773.49219 123.352542,1774.35156 122.678711,1774.99609 C122.004879,1775.64063 121.101568,1775.96289 119.96875,1775.96289 C118.640618,1775.96289 117.532231,1775.50879 116.643555,1774.60059 C115.754878,1773.69238 115.310547,1772.50587 115.310547,1771.04102 C115.310547,1768.11131 116.238272,1765.63575 118.09375,1763.61426 C119.949228,1761.59276 122.634748,1760.23047 126.150391,1759.52734 Z" />
    </g>
</svg>